<svg data-v-0dd9719b="" version="1.0" xmlns="http://www.w3.org/2000/svg" xmlns:xlink="http://www.w3.org/1999/xlink" width="100%" height="100%" viewBox="0 0 340.000000 250.000000" preserveAspectRatio="xMidYMid meet" color-interpolation-filters="sRGB" style="margin: auto;"> <rect data-v-0dd9719b="" x="0" y="0" width="100%" height="100%" fill="#fff" fill-opacity="1" class="background"></rect> <rect data-v-0dd9719b="" x="0" y="0" width="100%" height="100%" fill="url(#watermark)" fill-opacity="1" class="watermarklayer"></rect> <g data-v-0dd9719b="" fill="#d4003b" class="icon-text-wrapper icon-svg-group iconsvg" transform="translate(48.94999694824219,87.00174713134766)"><g class="iconsvg-imagesvg" transform="translate(0,0)"><g><rect fill="#d4003b" fill-opacity="0" stroke-width="2" x="0" y="0" width="60" height="75.9965041608086" class="image-rect"></rect> <svg x="0" y="0" width="60" height="75.9965041608086" filtersec="colorsb9910000142" class="image-svg-svg primary" style="overflow: visible;"><svg xmlns="http://www.w3.org/2000/svg" viewBox="0.004270657896995544 0.0005207061767578125 103.7257308959961 131.37948608398438"><defs><linearGradient id="ac4cadcae-5b3c-4b9e-a89b-a5aaf0ed31a8" x1="-6.51" y1="9.17" x2="62.57" y2="35.94" gradientUnits="userSpaceOnUse"><stop offset="0" stop-color="#ff9c3f"></stop><stop offset=".3" stop-color="#ff5a48"></stop><stop offset=".67" stop-color="#d4003b"></stop><stop offset="1" stop-color="#4e0000"></stop></linearGradient><linearGradient id="b284317e1-0de3-4295-9dea-bdebf8aaf5dd" x1="3.14" y1="106.46" x2="78.86" y2="72.5" gradientUnits="userSpaceOnUse"><stop offset="0" stop-color="#ff9c3f"></stop><stop offset=".3" stop-color="#ff5a48"></stop><stop offset=".67" stop-color="#d4003b"></stop><stop offset="1" stop-color="#4e0000"></stop></linearGradient><linearGradient id="c0868a3b9-7635-440d-a54d-159d1e511d74" x1="123.08" y1="31.17" x2="14.02" y2="30.33" gradientUnits="userSpaceOnUse"><stop offset="0" stop-color="#ff9c3f"></stop><stop offset=".3" stop-color="#ff5a48"></stop><stop offset=".67" stop-color="#d4003b"></stop><stop offset="1" stop-color="#4e0000"></stop></linearGradient><linearGradient id="d49dad782-c66a-40b6-849d-a2eec4023cc0" x1="118.99" y1="60.93" x2=".25" y2="61.46" gradientUnits="userSpaceOnUse"><stop offset="0" stop-color="#ff9c3f"></stop><stop offset=".3" stop-color="#ff5a48"></stop><stop offset=".67" stop-color="#d4003b"></stop><stop offset="1" stop-color="#4e0000"></stop></linearGradient></defs><g><g fill-rule="evenodd"><path d="M37.31 45.54c-25.9-5.92 17.78-47.22 57.55 2.25C67.87 2.44 35.37-4.08 2 17.94c2.21 18.34 12.33 28.36 35.31 27.6z" fill="url(#ac4cadcae-5b3c-4b9e-a89b-a5aaf0ed31a8)"></path><path d="M60.69 75.36c20.3 5-4.26 25-11.24 30.25-24.9-8.55-44-23.28-48.33-44.41-.55 35.88 16.37 50.28 49.39 70.18C64.91 124 77.69 115.63 87 104.59c14.73-18.21-10.56-30.95-26.31-29.23z" fill="url(#b284317e1-0de3-4295-9dea-bdebf8aaf5dd)"></path><path d="M94.86 47.79a74.55 74.55 0 0 1 8.87 13.83q-.47-22.27-1.48-41.14C68.09-8.19 25.71-4.61 2 17.94q50.08-31.35 92.86 29.85z" fill="url(#c0868a3b9-7635-440d-a54d-159d1e511d74)"></path><path d="M59.94 75.2c.24 0 .49.09.75.16C74.05 78.09 99.35 88 87 104.59A64.79 64.79 0 0 0 101.49 74c2.66-14.26-12.45-20.57-24-23.24-12.52-2-28.36-2.57-40.13-5.26-19-3.37-28.65-11-35.35-27.6Q.6 27.57.17 36.16C-.36 46.9 0 52.25 7.1 61.2c12.27 15.36 31.32 10.57 51.28 13.73h.24z" fill="url(#d49dad782-c66a-40b6-849d-a2eec4023cc0)"></path></g></g></svg></svg> <!----></g></g> <g transform="translate(67,10.209192276000977)"><g data-gra="path-name" fill-rule="" class="tp-name iconsvg-namesvg" transform="translate(0,0)"><g transform="scale(1)"><g><path d="M15.12-31.32L15.12-31.32Q18.77-31.23 24.39-32.4 30.02-33.57 31.52-34.11 33.03-34.65 33.91-34.65 34.78-34.65 36.09-33.95 37.39-33.25 37.39-32.74 37.39-32.22 36.79-31.88 36.18-31.54 35.03-31.32 33.88-31.09 28.87-30.46 23.85-29.83 21.29-29.47 18.72-29.11 16.88-29.2L16.88-29.2Q15.48-16.06 13.3-9.7 11.12-3.33 7.25-0.34 3.38 2.65 2.52 2.65L2.52 2.65Q2.34 2.65 2.34 2.43L2.34 2.43Q2.34 1.89 4.46-0.77 6.57-3.42 8.03-6.61 9.49-9.81 10.78-15.88 12.06-21.96 12.06-25.36 12.06-28.75 11.45-29.81 10.84-30.87 10.84-31.41 10.84-31.95 11.88-31.95 12.91-31.95 15.12-31.32ZM30.42-2.65L30.42-2.65Q33.57-1.17 36.09-0.36 38.61 0.45 43.6 1.21L43.6 1.21Q45.63 1.53 45.63 2.21L45.63 2.21Q45.63 2.61 44.77 3.04 43.92 3.46 40.95 4.3 37.98 5.13 36.63 5.13L36.63 5.13Q34.6 5.13 32.74 3.46 30.87 1.8 28.13-0.45L28.13-0.45Q24.16 2.43 16.52 2.43L16.52 2.43Q14.49 2.43 14.49 1.91 14.49 1.4 17.1 0.72L17.1 0.72Q22.5-0.67 25.15-2.7L25.15-2.7Q22.99-4.27 20.84-5.26L20.84-5.26Q17.41-1.98 13.79-0.45 10.17 1.08 8.55 1.08L8.55 1.08Q7.92 1.08 7.92 0.77L7.92 0.77Q7.92 0.27 10.46-1.1 13-2.48 16.13-5.4 19.26-8.32 20.34-10.84L20.34-10.84Q18.77-10.93 18.63-13.18 18.5-15.43 17.93-17.71 17.37-19.98 16.76-20.84 16.16-21.69 16.16-22.18L16.16-22.18Q16.16-22.86 17.14-22.86 18.13-22.86 19.66-22.41L19.66-22.41Q21.29-22.63 22.27-22.86L22.27-22.86Q23.31-24.48 23.22-25.38L23.22-25.38Q20.29-24.93 19.33-24.93 18.36-24.93 17.71-25.56 17.05-26.19 17.05-26.41 17.05-26.64 18.5-26.73L18.5-26.73Q21.06-26.82 27.4-28.19 33.75-29.56 35.05-29.56L35.05-29.56Q35.95-29.56 36.88-28.89 37.8-28.21 37.8-27.68L37.8-27.68Q37.8-26.77 35.73-26.71 33.66-26.64 32.04-26.55 30.42-26.46 26.55-25.92L26.55-25.92Q27.09-25.61 27.09-25.15 27.09-24.7 25.33-23.45L25.33-23.45Q28.48-24.07 29.36-24.55 30.24-25.02 30.98-25.02 31.72-25.02 33.98-23.8 36.23-22.59 36.23-21.69L36.23-21.69Q36.23-21.2 35.5-20.52L35.5-20.52Q34.6-19.66 34.18-16.88 33.75-14.08 33.28-13.07 32.8-12.06 32.02-11.43 31.23-10.8 30.53-10.8 29.83-10.8 29.34-11.41 28.84-12.01 28.26-12.01 27.68-12.01 27.22-11.97L27.22-11.97 23.63-11.52Q25.38-10.35 25.38-9.81 25.38-9.27 24.3-8.87L24.3-8.87Q27.22-9.22 28.71-10.21L28.71-10.21Q29.43-10.66 30.13-10.66 30.82-10.66 32.8-9.52 34.78-8.37 34.78-7.65L34.78-7.65Q34.78-7.29 34.18-6.93 33.57-6.57 33.12-6.12 32.67-5.67 31.97-4.68 31.27-3.69 30.42-2.65ZM21.64-13.23L21.64-13.23Q27.22-14.13 27.74-14.13 28.26-14.13 28.51-13.99 28.75-13.86 29.05-13.86 29.34-13.86 29.56-14.6 29.79-15.34 30.06-17.8 30.33-20.25 30.33-21.04 30.33-21.82 30.15-21.98 29.97-22.14 29.52-22.14 29.07-22.14 28.39-22L28.39-22 21.11-20.93 21.29-19.35Q22.18-19.44 24.19-20 26.19-20.56 27-20.56 27.81-20.56 28.51-20.25 29.2-19.93 29.2-19.53 29.2-19.13 28.64-18.81 28.08-18.5 25.83-18.07 23.58-17.64 21.46-17.68L21.46-17.68Q21.55-16.65 21.55-16.02L21.55-16.02Q22.9-16.2 24.16-16.65L24.16-16.65Q26.1-17.19 26.86-17.19 27.63-17.19 28.48-16.9 29.34-16.61 29.34-16.29L29.34-16.29Q29.34-15.79 26.91-15.28 24.48-14.76 23.45-14.76 22.41-14.76 21.6-14.85L21.6-14.85Q21.64-14.35 21.64-13.23ZM27.04-4.37L27.04-4.37Q27.68-5.13 28.3-6.08 28.93-7.02 28.93-7.27 28.93-7.51 28.62-7.51 28.3-7.51 26.95-7.13 25.61-6.75 24.64-6.75 23.67-6.75 22.59-7.15L22.59-7.15Q22.45-7.06 22.18-6.71L22.18-6.71Q23.67-6.48 24.73-5.76 25.79-5.04 27.04-4.37ZM64.94-29.52L64.94-29.52Q64.94-28.26 64.37-27.34 63.81-26.41 62.89-26.41 61.97-26.41 61.06-27.38 60.16-28.35 59.04-30.31 57.91-32.27 57.91-32.71L57.91-32.71Q57.91-33.34 58.99-33.34L58.99-33.34Q60.8-33.34 62.86-32.42 64.94-31.5 64.94-29.52ZM84.56-28.04L84.56-28.04Q84.56-27.54 83.7-26.41 82.84-25.29 82.84-22.21 82.84-19.13 83.3-13.57 83.75-8.01 83.75-5.17 83.75-2.34 83.14-0.83 82.53 0.67 81.47 1.73 80.41 2.79 79.4 2.79 78.39 2.79 77.94 1.48L77.94 1.48Q77.17-0.67 73.98-3.33L73.98-3.33Q72.58-4.46 72.58-4.79 72.58-5.13 73.13-5.13 73.66-5.13 75.33-4.75 77-4.37 77.78-4.37 78.57-4.37 78.77-4.81 78.97-5.26 78.97-10.93 78.97-16.61 78.66-21.46 78.34-26.32 78.1-26.91 77.85-27.49 76.95-27.49L76.95-27.49Q74.97-27.49 72.63-26.77L72.63-26.77Q70.88-26.28 70-26.28 69.12-26.28 67.97-27.4 66.83-28.53 66.83-28.89 66.83-29.25 67.25-29.32 67.68-29.38 69.57-29.38 71.46-29.38 73.71-29.83 75.96-30.29 77.13-30.91 78.3-31.54 79.04-31.54 79.78-31.54 82.17-30.22 84.56-28.89 84.56-28.04ZM59.89-24.07L59.89-24.07Q59.89-23.54 59.4-22.7 58.91-21.87 58.77-20.25 58.63-18.63 58.57-14.38 58.5-10.13 58.3-6.68 58.09-3.24 57.22-1.51 56.34 0.22 55.44 0.22 54.54 0.22 53.57-1.55 52.6-3.33 52.6-4.32 52.6-5.31 53.37-6.48L53.37-6.48Q54.81-8.82 54.81-20.07L54.81-20.07Q54.81-22.23 54.67-23.33 54.54-24.43 53.95-25.29 53.37-26.14 53.37-26.77 53.37-27.4 54.31-27.4 55.26-27.4 57.58-26.35 59.89-25.29 59.89-24.07ZM119.97-17.1L119.97-17.1Q123.39-17.64 125.5-18.25 127.62-18.86 128.97-18.86 130.32-18.86 131.56-17.64 132.8-16.43 132.8-15.79L132.8-15.79Q132.8-14.85 130.14-14.85L130.14-14.85 126.59-15.03Q124.11-15.03 119.92-14.49L119.92-14.49 119.75-5.4 124.52-5.98Q124.38-9.45 123.66-10.46 122.94-11.47 122.94-12.15 122.94-12.82 123.91-12.82 124.88-12.82 127.17-11.81 129.47-10.8 129.47-9.76L129.47-9.76Q129.47-9.31 129.01-8.44 128.56-7.56 128.52-4.72L128.52-4.72Q128.52-0.58 127.87 0.65 127.22 1.89 126.5 1.89 125.78 1.89 125.06 1.13 124.34 0.36 124.34-0.77L124.34-0.77 124.56-3.69Q113.4-2.07 110.38 0.27L110.38 0.27Q109.48 0.94 108.83 0.94 108.18 0.94 107.06-0.74 105.93-2.43 105.93-2.95 105.93-3.46 107.33-3.92L107.33-3.92Q107.91-4.09 108.22-4.88 108.54-5.67 108.54-6.91 108.54-8.14 108.09-8.78L108.09-8.78Q107.19-10.04 107.19-10.71 107.19-11.38 108.07-11.38 108.94-11.38 110.77-10.48 112.59-9.58 112.59-8.01L112.59-8.01Q112.59-6.88 111.51-4.46L111.51-4.46Q113.63-4.59 115.92-4.95L115.92-4.95 116.01-13.9Q112.5-13.5 111.22-13.18 109.94-12.87 109.17-12.87 108.41-12.87 107.01-14.13L107.01-14.13Q105.66-11.52 104.44-11.52L104.44-11.52Q103.68-11.52 103-12.69L103-12.69Q102.15-14.26 99.77-15.52L99.77-15.52 99.58-4.95Q99.5-0.32 99.16 0.97 98.82 2.25 98.35 2.81 97.88 3.38 97.16 3.38L97.16 3.38Q95.94 3.38 95.2 1.62 94.45-0.14 94.45-1.51 94.45-2.88 95.49-5.22L95.49-5.22Q96.3-7.2 96.3-21.42L96.3-21.42Q96.3-24.7 96.1-25.83 95.89-26.95 95.27-27.74 94.64-28.53 94.64-29.07 94.64-29.61 95.74-29.61 96.84-29.61 98.82-29.02L98.82-29.02Q102.51-29.7 103.59-31L103.59-31Q104.27-31.77 105.25-31.77 106.25-31.77 108.25-30.62 110.25-29.47 110.25-28.66 110.25-27.86 108.79-27.22 107.33-26.59 106.52-25.74L106.52-25.74 104.63-23.89Q103.64-22.9 103.64-22.52 103.64-22.14 104.22-21.73L104.22-21.73Q107.5-19.44 107.5-16.47L107.5-16.47Q107.5-16.06 107.46-15.66L107.46-15.66Q107.69-15.71 108.27-15.71L108.27-15.71Q110.92-15.75 116.01-16.47L116.01-16.47 116.01-20.52Q114.44-20.29 113.17-20.29 111.91-20.29 110.75-20.95 109.58-21.6 109.58-22 109.58-22.41 111.64-22.66 113.72-22.9 116.06-23.49L116.06-23.49Q116.1-24.93 116.1-26.8 116.1-28.66 115.88-30.13 115.65-31.59 114.97-32.35L114.97-32.35Q113.85-33.57 113.85-34.22 113.85-34.88 115.04-34.88 116.23-34.88 118.94-33.84 121.63-32.8 121.63-31.5L121.63-31.5Q121.63-31 121.28-30.42L121.28-30.42Q120.47-29.16 120.19-24.66L120.19-24.66Q122.44-25.56 123.59-25.56 124.74-25.56 125.84-25.2 126.94-24.84 126.94-24.23 126.94-23.63 125.93-23.02 124.92-22.41 120.06-21.29L120.06-21.29Q120.06-20.29 119.97-17.1ZM99.99-27.18L99.77-16.56Q100.66-16.47 101.34-16.47L101.34-16.47Q103.68-16.47 103.68-17.73L103.68-17.73Q103.68-18.72 102.24-20.65L102.24-20.65Q101.66-21.46 101.66-22.05L101.66-22.05Q101.66-22.95 103.45-26.64L103.45-26.64Q103.77-27.31 103.77-27.56 103.77-27.81 103.36-27.81 102.96-27.81 102.47-27.72L102.47-27.72 99.99-27.18ZM177.44-32.8L177.44-32.8Q177.44-32.31 177.03-31.3 176.63-30.29 176.44-28.46 176.26-26.64 176.26-22.59L176.26-22.59 176.4-3.87Q176.4-1.21 175.91 0.11 175.41 1.44 174.01 2.7 172.62 3.96 171.92 3.96 171.22 3.96 170.48 2.09 169.74 0.22 167.85-1.75 165.96-3.73 165.96-4.23L165.96-4.23Q165.96-4.54 166.57-4.54 167.18-4.54 168.86-4 170.55-3.46 171.05-3.46 171.54-3.46 171.7-3.98 171.85-4.5 172.19-7.42 172.53-10.35 172.53-15.39L172.53-15.39Q172.53-23.98 172.26-27.99 171.99-31.99 171.13-33.34 170.28-34.7 170.28-35.21 170.28-35.73 171.09-35.73 171.9-35.73 174.67-34.9 177.44-34.06 177.44-32.8ZM152.41-33.39L152.41-33.39Q156.28-33.39 157.16-32.42 158.04-31.45 158.04-29.83L158.04-29.83Q158.04-27.99 156.53-27.99 155.03-27.99 152.75-30.13 150.48-32.27 150.48-32.83 150.48-33.39 152.41-33.39ZM149.72-23.18L149.72-23.18Q147.01-22.81 145.78-22.81 144.54-22.81 143.41-23.6 142.29-24.39 142.29-24.64 142.29-24.88 144.36-25.02L144.36-25.02Q148.14-25.24 151.81-25.83 155.47-26.41 157.91-27.25 160.34-28.08 161.3-28.08 162.27-28.08 163.42-27.49 164.56-26.91 164.56-26.21 164.56-25.52 162.68-25.02 160.78-24.52 158.29-24.3 155.79-24.07 152.87-23.58L152.87-23.58Q154.03-22.68 154.03-22.14 154.03-21.6 153.18-21.06L153.18-21.06Q151.43-19.98 148.77-17.32L148.77-17.32Q150.62-17.32 153.63-17.64L153.63-17.64Q155.38-20.16 155.25-21.51L155.25-21.51Q155.2-21.82 155.2-22.09L155.2-22.09Q155.2-23.13 155.99-23.13 156.78-23.13 158.67-21.73 160.56-20.34 160.56-19.64 160.56-18.95 159.73-18.5 158.9-18.04 158.15-17.3 157.41-16.56 155.7-14.45L155.7-14.45Q152.41-10.35 149.13-7.99 145.84-5.63 142.65-4.61 139.46-3.6 138.85-3.6 138.24-3.6 138.24-3.73L138.24-3.73Q138.24-4.09 140.99-5.8L140.99-5.8Q147.87-10.08 152.19-15.66L152.19-15.66Q148.95-14.58 147.24-13.5L147.24-13.5Q146.52-13.05 145.98-13.05 145.44-13.05 144.61-14.65 143.78-16.25 143.78-16.72 143.78-17.19 144.11-17.28 144.45-17.37 145.49-17.37L145.49-17.37Q146.07-17.37 146.72-18.11 147.38-18.86 148.46-20.63 149.53-22.41 149.72-23.18ZM170.32-23.36L170.32-23.36Q170.32-22.81 169.92-22.07 169.51-21.33 169.43-19.57 169.34-17.82 169.36-15.46 169.38-13.09 169.38-12.78L169.38-12.78Q169.38-10.53 168.68-9.18 167.99-7.83 167.29-7.83 166.59-7.83 165.74-8.93 164.88-10.04 164.88-10.89 164.88-11.74 165.38-13.23L165.38-13.23Q165.74-14.35 165.74-17.32L165.74-17.32Q165.74-21.15 165.65-22.27 165.56-23.4 165.24-23.8L165.24-23.8Q164.52-24.7 164.52-25.2 164.52-25.7 165.31-25.7 166.09-25.7 168.21-25.04 170.32-24.39 170.32-23.36ZM156.82-7.25L156.82-7.25Q160.47-6.48 161.78-5.47 163.08-4.46 163.08-2.21L163.08-2.21Q163.08-1.21 162.59-0.63 162.09-0.04 161.41-0.04 160.74-0.04 160.22-0.36 159.7-0.67 158.42-2.05 157.14-3.42 155.38-5.76L155.38-5.76Q152.1-2.7 148.66-1.64 145.22-0.58 143.73-0.58L143.73-0.58Q143.24-0.58 143.24-0.77L143.24-0.77Q143.24-1.17 145.66-2.52L145.66-2.52Q150.34-5.17 154.06-9 157.77-12.82 157.5-14.67L157.5-14.67Q157.45-15.07 157.45-15.39L157.45-15.39Q157.45-16.29 158.11-16.29 158.76-16.29 160.6-14.89 162.45-13.5 162.45-12.78 162.45-12.06 161.32-11.43L161.32-11.43Q160.51-11.03 156.82-7.25Z" transform="translate(-2.3399999141693115, 35.72999954223633)"></path></g> <!----> <!----> <!----> <!----> <!----> <!----> <!----></g></g> <g data-gra="path-slogan" fill-rule="" class="tp-slogan iconsvg-slogansvg" fill="#d4003b" transform="translate(47.80000305175781,46.86000061035156)"><!----> <!----> <g transform="scale(1, 1)"><g transform="scale(1)"><path d="M7.64-8.58L4.73-4.41L7.78 0L6.33 0L3.98-3.52L1.64 0L0.23 0L3.33-4.41L0.42-8.58L1.88-8.58L4.03-5.30L6.23-8.58L7.64-8.58ZM9.05-8.58L10.22-8.58L10.22 0L9.05 0L9.05-8.58ZM17.86 0L17.02-2.48L13.55-2.48L12.66 0L11.48 0L14.72-8.58L16.03-8.58L19.13 0L17.86 0ZM15.28-7.31L13.92-3.52L16.59-3.52L15.33-7.31L15.28-7.31ZM28.41-8.58L28.41 0L27.28 0L27.28-5.06Q27.28-5.77 27.28-7.22L27.28-7.22L24.84 0L23.67 0L21.28-7.22L21.23-7.22Q21.23-6.70 21.28-5.67L21.28-5.67Q21.28-5.16 21.28-5.06L21.28-5.06L21.28 0L20.11 0L20.11-8.58L21.80-8.58L24.28-1.31L26.72-8.58L28.41-8.58ZM31.41-1.03L36.56-1.03L36.56 0L30.23 0L30.23-8.58L36.47-8.58L36.47-7.59L31.41-7.59L31.41-4.92L36.09-4.92L36.09-3.89L31.41-3.89L31.41-1.03ZM39.47-8.58L43.78-1.64L43.78-8.58L44.91-8.58L44.91 0L43.59 0L39.23-6.94L39.19-6.94L39.19 0L38.06 0L38.06-8.58L39.47-8.58ZM50.02-8.58L51.19-8.58L51.19-1.03L55.55-1.03L55.55 0L50.02 0L50.02-8.58ZM62.34-3.19L62.34-8.58L63.52-8.58L63.52-3.05Q63.38 0.05 60 0.14L60 0.14Q56.86 0.05 56.72-2.86L56.72-2.86L56.72-8.58L57.89-8.58L57.89-3.19Q57.94-0.84 60.05-0.80L60.05-0.80Q62.34-0.84 62.34-3.19L62.34-3.19ZM67.83-4.31L66.47-3.05L66.47 0L65.30 0L65.30-8.58L66.47-8.58L66.47-4.41L70.64-8.58L72.28-8.58L68.67-5.11L72.38 0L70.83 0L67.83-4.31ZM74.58-1.03L79.73-1.03L79.73 0L73.41 0L73.41-8.58L79.64-8.58L79.64-7.59L74.58-7.59L74.58-4.92L79.27-4.92L79.27-3.89L74.58-3.89L74.58-1.03Z" transform="translate(-0.234375, 8.578125)"></path></g></g></g></g></g><defs v-gra="od"></defs></svg>